<svg xmlns="http://www.w3.org/2000/svg" xmlns:xlink="http://www.w3.org/1999/xlink" width="500" zoomAndPan="magnify" viewBox="0 0 375 374.999991" height="500" preserveAspectRatio="xMidYMid meet" version="1.0"><defs><g/></defs><g fill="#ff66c4" fill-opacity="1"><g transform="translate(37.500002, 134.455709)"><g><path d="M 0.359375 -29.953125 L 0.359375 -37.453125 L 26.6875 -37.453125 L 26.6875 -29.953125 L 17.796875 -29.953125 L 17.796875 0 L 9.265625 0 L 9.265625 -29.953125 Z M 0.359375 -29.953125 "/></g></g></g><g fill="#ff66c4" fill-opacity="1"><g transform="translate(64.554073, 134.455709)"><g><path d="M 11.25 -15.03125 L 11.25 0 L 2.71875 0 L 2.71875 -37.453125 L 11.25 -37.453125 L 11.25 -22.515625 L 23.328125 -22.515625 L 23.328125 -37.453125 L 31.859375 -37.453125 L 31.859375 0 L 23.328125 0 L 23.328125 -15.03125 Z M 11.25 -15.03125 "/></g></g></g><g fill="#ff66c4" fill-opacity="1"><g transform="translate(99.143335, 134.455709)"><g><path d="M 21.734375 -37.453125 L 36.859375 0 L 27.6875 0 L 24.921875 -7.484375 L 10.671875 -7.484375 L 7.890625 0 L -1.265625 0 L 13.84375 -37.453125 Z M 22.015625 -14.984375 L 17.84375 -25.875 L 17.75 -25.875 L 13.578125 -14.984375 Z M 22.015625 -14.984375 "/></g></g></g><g fill="#ff66c4" fill-opacity="1"><g transform="translate(134.731243, 134.455709)"><g><path d="M 11.25 -37.453125 L 11.25 0 L 2.71875 0 L 2.71875 -37.453125 Z M 11.25 -37.453125 "/></g></g></g><g fill="#ff66c4" fill-opacity="1"><g transform="translate(148.712206, 134.455709)"><g/></g></g><g fill="#ff66c4" fill-opacity="1"><g transform="translate(161.104422, 134.455709)"><g><path d="M 16.515625 -38.125 C 18.546875 -38.125 20.53125 -37.828125 22.46875 -37.234375 C 24.40625 -36.648438 25.84375 -36.070312 26.78125 -35.5 L 28.140625 -34.59375 L 24.6875 -27.78125 C 24.414062 -27.957031 24.035156 -28.1875 23.546875 -28.46875 C 23.066406 -28.757812 22.160156 -29.144531 20.828125 -29.625 C 19.503906 -30.113281 18.265625 -30.359375 17.109375 -30.359375 C 15.691406 -30.359375 14.59375 -30.054688 13.8125 -29.453125 C 13.039062 -28.847656 12.65625 -28.03125 12.65625 -27 C 12.65625 -26.488281 12.835938 -26.015625 13.203125 -25.578125 C 13.566406 -25.140625 14.1875 -24.671875 15.0625 -24.171875 C 15.945312 -23.671875 16.722656 -23.269531 17.390625 -22.96875 C 18.054688 -22.664062 19.082031 -22.210938 20.46875 -21.609375 C 22.894531 -20.578125 24.960938 -19.175781 26.671875 -17.40625 C 28.378906 -15.632812 29.234375 -13.628906 29.234375 -11.390625 C 29.234375 -9.242188 28.847656 -7.367188 28.078125 -5.765625 C 27.304688 -4.160156 26.242188 -2.90625 24.890625 -2 C 23.546875 -1.09375 22.054688 -0.421875 20.421875 0.015625 C 18.785156 0.460938 17.015625 0.6875 15.109375 0.6875 C 13.472656 0.6875 11.867188 0.519531 10.296875 0.1875 C 8.722656 -0.144531 7.40625 -0.5625 6.34375 -1.0625 C 5.289062 -1.5625 4.335938 -2.050781 3.484375 -2.53125 C 2.640625 -3.019531 2.023438 -3.429688 1.640625 -3.765625 L 1.046875 -4.265625 L 5.3125 -11.4375 C 5.675781 -11.132812 6.175781 -10.75 6.8125 -10.28125 C 7.445312 -9.8125 8.570312 -9.179688 10.1875 -8.390625 C 11.8125 -7.609375 13.242188 -7.21875 14.484375 -7.21875 C 18.078125 -7.21875 19.875 -8.441406 19.875 -10.890625 C 19.875 -11.410156 19.742188 -11.890625 19.484375 -12.328125 C 19.234375 -12.765625 18.78125 -13.203125 18.125 -13.640625 C 17.476562 -14.078125 16.90625 -14.421875 16.40625 -14.671875 C 15.90625 -14.929688 15.085938 -15.328125 13.953125 -15.859375 C 12.816406 -16.390625 11.976562 -16.789062 11.4375 -17.0625 C 9.164062 -18.1875 7.410156 -19.585938 6.171875 -21.265625 C 4.929688 -22.941406 4.3125 -24.75 4.3125 -26.6875 C 4.3125 -30.050781 5.550781 -32.796875 8.03125 -34.921875 C 10.507812 -37.054688 13.335938 -38.125 16.515625 -38.125 Z M 16.515625 -38.125 "/></g></g></g><g fill="#ff66c4" fill-opacity="1"><g transform="translate(191.608347, 134.455709)"><g><path d="M 1.046875 -18.75 C 1.046875 -24.164062 2.890625 -28.75 6.578125 -32.5 C 10.273438 -36.25 14.722656 -38.125 19.921875 -38.125 C 25.160156 -38.125 29.609375 -36.253906 33.265625 -32.515625 C 36.929688 -28.785156 38.765625 -24.195312 38.765625 -18.75 C 38.765625 -13.269531 36.960938 -8.660156 33.359375 -4.921875 C 29.753906 -1.179688 25.273438 0.6875 19.921875 0.6875 C 14.441406 0.6875 9.925781 -1.164062 6.375 -4.875 C 2.820312 -8.582031 1.046875 -13.207031 1.046875 -18.75 Z M 10.265625 -18.75 C 10.265625 -16.78125 10.566406 -14.984375 11.171875 -13.359375 C 11.773438 -11.742188 12.832031 -10.375 14.34375 -9.25 C 15.851562 -8.132812 17.710938 -7.578125 19.921875 -7.578125 C 23.097656 -7.578125 25.492188 -8.664062 27.109375 -10.84375 C 28.734375 -13.019531 29.546875 -15.65625 29.546875 -18.75 C 29.546875 -21.800781 28.722656 -24.421875 27.078125 -26.609375 C 25.429688 -28.804688 23.046875 -29.90625 19.921875 -29.90625 C 16.835938 -29.90625 14.457031 -28.804688 12.78125 -26.609375 C 11.101562 -24.421875 10.265625 -21.800781 10.265625 -18.75 Z M 10.265625 -18.75 "/></g></g></g><g fill="#ff66c4" fill-opacity="1"><g transform="translate(231.417778, 134.455709)"><g><path d="M 11.25 -23.234375 L 11.25 0 L 2.71875 0 L 2.71875 -37.453125 L 11.25 -37.453125 L 26.140625 -14.203125 L 26.234375 -14.203125 L 26.234375 -37.453125 L 34.765625 -37.453125 L 34.765625 0 L 26.234375 0 L 11.34375 -23.234375 Z M 11.25 -23.234375 "/></g></g></g><g fill="#ffffff" fill-opacity="1"><g transform="translate(37.500002, 166.082165)"><g><path d="M 0.914062 -12.746094 L 0.914062 0 L 3.5625 0 L 3.5625 -5.359375 L 7.828125 -5.359375 L 7.828125 -7.648438 L 3.5625 -7.648438 L 3.5625 -10.457031 L 8.644531 -10.457031 L 8.644531 -12.746094 Z M 0.914062 -12.746094 "/></g></g></g><g fill="#ffffff" fill-opacity="1"><g transform="translate(48.432402, 166.082165)"><g><path d="M 5.410156 0.210938 C 8.875 0.210938 10 -1.257812 10 -4.035156 L 10 -12.746094 L 7.355469 -12.746094 L 7.355469 -4.117188 C 7.355469 -2.761719 6.914062 -2.074219 5.410156 -2.074219 C 3.90625 -2.074219 3.480469 -2.761719 3.480469 -4.117188 L 3.480469 -12.746094 L 0.832031 -12.746094 L 0.832031 -4.035156 C 0.832031 -1.257812 1.945312 0.210938 5.410156 0.210938 Z M 5.410156 0.210938 "/></g></g></g><g fill="#ffffff" fill-opacity="1"><g transform="translate(61.227723, 166.082165)"><g><path d="M 8.269531 0 L 8.269531 -2.289062 L 3.5625 -2.289062 L 3.5625 -12.746094 L 0.914062 -12.746094 L 0.914062 0 Z M 8.269531 0 "/></g></g></g><g fill="#ffffff" fill-opacity="1"><g transform="translate(71.702566, 166.082165)"><g><path d="M 8.269531 0 L 8.269531 -2.289062 L 3.5625 -2.289062 L 3.5625 -12.746094 L 0.914062 -12.746094 L 0.914062 0 Z M 8.269531 0 "/></g></g></g><g fill="#ffffff" fill-opacity="1"><g transform="translate(82.17741, 166.082165)"><g><path d="M 4.738281 -5.328125 C 6.585938 -5.082031 7.058594 -4.574219 7.058594 -3.660156 L 7.058594 -3.578125 C 7.058594 -2.730469 6.453125 -2.074219 5.230469 -2.074219 L 5.082031 -2.074219 C 3.855469 -2.074219 3.203125 -2.746094 3.203125 -4.347656 L 0.554688 -4.347656 L 0.554688 -4.199219 C 0.554688 -1.128906 2.140625 0.210938 5.148438 0.210938 C 8.136719 0.210938 9.753906 -1.210938 9.753906 -3.660156 L 9.753906 -3.824219 C 9.753906 -6.195312 8.351562 -7.140625 5.574219 -7.515625 C 3.710938 -7.761719 3.332031 -8.253906 3.332031 -9.183594 L 3.332031 -9.265625 C 3.332031 -10.082031 3.953125 -10.671875 5.015625 -10.671875 L 5.164062 -10.671875 C 6.503906 -10.671875 7.011719 -9.902344 7.011719 -8.234375 L 9.65625 -8.234375 L 9.65625 -8.578125 C 9.65625 -11.570312 8.285156 -12.957031 5.148438 -12.957031 C 2.238281 -12.957031 0.652344 -11.472656 0.652344 -9.167969 L 0.652344 -8.988281 C 0.652344 -6.683594 1.960938 -5.703125 4.738281 -5.328125 Z M 4.738281 -5.328125 "/></g></g></g><g fill="#ffffff" fill-opacity="1"><g transform="translate(94.449803, 166.082165)"><g><path d="M 5.867188 -10.457031 L 8.824219 -10.457031 L 8.824219 -12.746094 L 0.277344 -12.746094 L 0.277344 -10.457031 L 3.21875 -10.457031 L 3.21875 0 L 5.867188 0 Z M 5.867188 -10.457031 "/></g></g></g><g fill="#ffffff" fill-opacity="1"><g transform="translate(105.512931, 166.082165)"><g><path d="M 3.414062 -12.777344 L 0.230469 0 L 3.070312 0 L 3.675781 -2.746094 L 6.796875 -2.746094 L 7.417969 0 L 10.246094 0 L 7.058594 -12.777344 Z M 5.230469 -9.722656 L 6.273438 -5.03125 L 4.183594 -5.03125 Z M 5.230469 -9.722656 "/></g></g></g><g fill="#ffffff" fill-opacity="1"><g transform="translate(117.948742, 166.082165)"><g><path d="M 3.316406 -6.046875 L 3.316406 -6.699219 C 3.316406 -9.25 3.726562 -10.671875 5.425781 -10.671875 L 5.574219 -10.671875 C 6.960938 -10.671875 7.335938 -9.65625 7.335938 -7.910156 L 9.984375 -7.910156 L 9.984375 -8.496094 C 9.984375 -11.683594 8.449219 -12.957031 5.425781 -12.957031 C 2.109375 -12.957031 0.636719 -11.113281 0.636719 -6.699219 L 0.636719 -6.046875 C 0.636719 -1.632812 2.109375 0.210938 5.425781 0.210938 C 8.449219 0.210938 9.984375 -1.0625 9.984375 -4.199219 L 9.984375 -4.347656 L 7.335938 -4.347656 C 7.335938 -2.972656 6.863281 -2.074219 5.574219 -2.074219 L 5.425781 -2.074219 C 3.726562 -2.074219 3.316406 -3.496094 3.316406 -6.046875 Z M 3.316406 -6.046875 "/></g></g></g><g fill="#ffffff" fill-opacity="1"><g transform="translate(130.531621, 166.082165)"><g><path d="M 3.5625 -12.746094 L 0.914062 -12.746094 L 0.914062 0 L 3.5625 0 L 3.5625 -3.675781 L 4.640625 -5.214844 L 6.960938 0 L 9.902344 0 L 6.324219 -7.632812 L 9.902344 -12.746094 L 6.699219 -12.746094 L 3.5625 -7.746094 Z M 3.5625 -12.746094 "/></g></g></g><g fill="#ffffff" fill-opacity="1"><g transform="translate(142.705967, 166.082165)"><g/></g></g><g fill="#ffffff" fill-opacity="1"><g transform="translate(147.93521, 166.082165)"><g><path d="M 10.195312 -6.046875 L 10.195312 -6.699219 C 10.195312 -11.113281 8.613281 -12.746094 4.820312 -12.746094 L 0.914062 -12.746094 L 0.914062 0 L 4.820312 0 C 8.613281 0 10.195312 -1.632812 10.195312 -6.046875 Z M 3.5625 -2.289062 L 3.5625 -10.457031 L 4.671875 -10.457031 C 6.878906 -10.457031 7.5 -9.25 7.5 -6.699219 L 7.5 -6.046875 C 7.5 -3.496094 6.878906 -2.289062 4.671875 -2.289062 Z M 3.5625 -2.289062 "/></g></g></g><g fill="#ffffff" fill-opacity="1"><g transform="translate(160.730535, 166.082165)"><g><path d="M 0.914062 -12.746094 L 0.914062 0 L 8.710938 0 L 8.710938 -2.289062 L 3.5625 -2.289062 L 3.5625 -5.359375 L 7.894531 -5.359375 L 7.894531 -7.648438 L 3.5625 -7.648438 L 3.5625 -10.457031 L 8.710938 -10.457031 L 8.710938 -12.746094 Z M 0.914062 -12.746094 "/></g></g></g><g fill="#ffffff" fill-opacity="1"><g transform="translate(172.055125, 166.082165)"><g><path d="M 7.058594 0.03125 L 10.246094 -12.746094 L 7.402344 -12.746094 L 5.230469 -3.023438 L 3.054688 -12.746094 L 0.230469 -12.746094 L 3.414062 0.03125 Z M 7.058594 0.03125 "/></g></g></g><g fill="#ffffff" fill-opacity="1"><g transform="translate(184.490929, 166.082165)"><g><path d="M 0.914062 -12.746094 L 0.914062 0 L 8.710938 0 L 8.710938 -2.289062 L 3.5625 -2.289062 L 3.5625 -5.359375 L 7.894531 -5.359375 L 7.894531 -7.648438 L 3.5625 -7.648438 L 3.5625 -10.457031 L 8.710938 -10.457031 L 8.710938 -12.746094 Z M 0.914062 -12.746094 "/></g></g></g><g fill="#ffffff" fill-opacity="1"><g transform="translate(195.815518, 166.082165)"><g><path d="M 8.269531 0 L 8.269531 -2.289062 L 3.5625 -2.289062 L 3.5625 -12.746094 L 0.914062 -12.746094 L 0.914062 0 Z M 8.269531 0 "/></g></g></g><g fill="#ffffff" fill-opacity="1"><g transform="translate(206.290364, 166.082165)"><g><path d="M 5.492188 0.210938 C 8.808594 0.210938 10.359375 -1.632812 10.359375 -6.046875 L 10.359375 -6.699219 C 10.359375 -11.113281 8.808594 -12.957031 5.492188 -12.957031 C 2.191406 -12.957031 0.636719 -11.113281 0.636719 -6.699219 L 0.636719 -6.046875 C 0.636719 -1.632812 2.191406 0.210938 5.492188 0.210938 Z M 5.425781 -2.074219 C 3.792969 -2.074219 3.316406 -3.496094 3.316406 -6.046875 L 3.316406 -6.699219 C 3.316406 -9.25 3.792969 -10.671875 5.425781 -10.671875 L 5.574219 -10.671875 C 7.207031 -10.671875 7.664062 -9.25 7.664062 -6.699219 L 7.664062 -6.046875 C 7.664062 -3.496094 7.207031 -2.074219 5.574219 -2.074219 Z M 5.425781 -2.074219 "/></g></g></g><g fill="#ffffff" fill-opacity="1"><g transform="translate(219.249097, 166.082165)"><g><path d="M 3.5625 -4.574219 L 5.097656 -4.574219 C 7.175781 -4.574219 9.527344 -5.097656 9.527344 -8.496094 L 9.527344 -8.824219 C 9.527344 -12.207031 7.175781 -12.746094 5.097656 -12.746094 L 0.914062 -12.746094 L 0.914062 0 L 3.5625 0 Z M 3.5625 -6.863281 L 3.5625 -10.457031 L 5.214844 -10.457031 C 5.933594 -10.457031 6.847656 -10.179688 6.847656 -8.742188 L 6.847656 -8.578125 C 6.847656 -7.140625 5.933594 -6.863281 5.214844 -6.863281 Z M 3.5625 -6.863281 "/></g></g></g><g fill="#ffffff" fill-opacity="1"><g transform="translate(231.161986, 166.082165)"><g><path d="M 0.914062 -12.746094 L 0.914062 0 L 8.710938 0 L 8.710938 -2.289062 L 3.5625 -2.289062 L 3.5625 -5.359375 L 7.894531 -5.359375 L 7.894531 -7.648438 L 3.5625 -7.648438 L 3.5625 -10.457031 L 8.710938 -10.457031 L 8.710938 -12.746094 Z M 0.914062 -12.746094 "/></g></g></g><g fill="#ffffff" fill-opacity="1"><g transform="translate(242.486576, 166.082165)"><g><path d="M 3.5625 -4.574219 L 4.917969 -4.574219 L 6.667969 0 L 9.527344 0 L 7.515625 -4.953125 C 8.660156 -5.425781 9.527344 -6.4375 9.527344 -8.496094 L 9.527344 -8.824219 C 9.527344 -12.207031 7.175781 -12.746094 5.097656 -12.746094 L 0.914062 -12.746094 L 0.914062 0 L 3.5625 0 Z M 3.5625 -6.863281 L 3.5625 -10.457031 L 5.214844 -10.457031 C 5.933594 -10.457031 6.847656 -10.179688 6.847656 -8.742188 L 6.847656 -8.578125 C 6.847656 -7.140625 5.933594 -6.863281 5.214844 -6.863281 Z M 3.5625 -6.863281 "/></g></g></g></svg>